# xmcd
#
# Track frame offsets:
# 150
# 16227
# 33998
# 52638
# 69484
# 86153
# 102402
# 119901
# 135847
# 152365
# 168465
# 186047
# 200338
# 216894
# 239628
# 254175
# 272092
# 288186
# 303390
# 318922
# 332994
#
# Disc length: 4690 seconds
#
#
# Revision: 0
# Processed by: cddbd v1.5.2PL0 Copyright (c) Steve Scherf et al.
# Submitted via: FreeRIP 2.96 
#
DISCID=30125015
DTITLE=Various Artist - Electronic 80's (Ministry Of Sound)
DYEAR=2010
DGENRE=Electronic
TTITLE0=Blondie - Rapture
TTITLE1=Human League - Don't You Want Me (Original Version)
TTITLE2=David Bowie - Fashion (1990 Digital Remaster)
TTITLE3=Nik Kershaw - Dancing Girls
TTITLE4=Kajagoogoo - Too Shy
TTITLE5=Yello - Vicious Games
TTITLE6=M - Pop Muzik
TTITLE7=Paul Hardcastle - 19
TTITLE8=Go West - We Close Our Eyes
TTITLE9=Classix Nouveaux - Is It A Dream
TTITLE10=Orchestral Manoeuvres In The Dark - Maid Of Orleans
TTITLE11=YazooOnly You - Only You
TTITLE12=Moti Special - Cold Days, Hot Nights
TTITLE13=Spandau Ballet - Only When You Leave
TTITLE14=Twins - Ballet Dancer
TTITLE15=Bryan Ferry - Kiss And Tell
TTITLE16=Belouis Some - Imagination
TTITLE17=Frankie Goes To Hollywood - Two Tribes
TTITLE18=Stephen Duffy - Kiss Me
TTITLE19=Erasure - Oh L'Amour
TTITLE20=Culture Club - Karma Chameleon
EXTD=
EXTT0=
EXTT1=
EXTT2=
EXTT3=
EXTT4=
EXTT5=
EXTT6=
EXTT7=
EXTT8=
EXTT9=
EXTT10=
EXTT11=
EXTT12=
EXTT13=
EXTT14=
EXTT15=Edit
EXTT16=
EXTT17=1999 Digital Remaster
EXTT18=
EXTT19=
EXTT20=
PLAYORDER=
